<?xml version="1.0" standalone="no"?>
<!DOCTYPE svg PUBLIC "-//W3C//DTD SVG 1.1//EN" "http://www.w3.org/Graphics/SVG/1.1/DTD/svg11.dtd" >
<svg xmlns="http://www.w3.org/2000/svg" xmlns:xlink="http://www.w3.org/1999/xlink" version="1.1">
<metadata></metadata>
<defs>
<font id="mixbrushmedium" horiz-adv-x="20" >
<font-face units-per-em="2048" ascent="1638" descent="-410" />
<missing-glyph horiz-adv-x="860" />
<glyph horiz-adv-x="0" />
<glyph unicode="&#xd;" horiz-adv-x="681" />
<glyph unicode=" "  horiz-adv-x="860" />
<glyph unicode="&#x09;" horiz-adv-x="860" />
<glyph unicode="&#xa0;" horiz-adv-x="860" />
<glyph unicode="!" horiz-adv-x="342" d="M20 1317.5q0 119.5 25 148.5q27 31 52.5 30t101.5 -38q57 -29 75.5 -53.5t32.5 -87.5q20 -80 12 -161t-51 -257q-18 -72 -40.5 -124t-44 -75.5t-40.5 -13.5q-31 18 -59.5 133t-46 247t-17.5 251.5zM111 422q-4 18 2 25.5t26 3.5q37 -8 43 -45q6 -20 -1 -26.5t-25 -2.5 q-39 8 -45 45z" />
<glyph unicode="#" horiz-adv-x="897" d="M20 891l70 61q55 49 67.5 95.5t-26.5 60.5q-31 12 -31 47q0 23 21 23q23 0 50.5 63.5t37.5 140.5q12 101 24 117q14 29 45 17.5t52 -52.5q27 -57 18 -161l-12 -107h180l25 107q45 195 131 194q27 0 39 -12t20 -49q10 -61 4 -76q-8 -12 -20 -205l-13 -192l76 -19 q70 -18 91.5 -54t-13.5 -75t-115 -63q-57 -16 -78.5 -52t-29.5 -131q-2 -35 -38 -85t-58 -50q-41 0 -54.5 38t-3.5 134l8 129h-190l14 -100q12 -86 -6 -124t-74 -38q-49 0 -72.5 38t-31.5 138q-12 115 -59 178zM330 1032q-14 -20 23.5 -48t82.5 -28q27 0 36 10.5t9 39.5 q0 33 -11 42t-56 9q-70 0 -84 -25z" />
<glyph unicode="$" horiz-adv-x="557" d="M20 602q0 12 13 12q20 0 59 -53q41 -57 71 -39.5t42 105.5q18 135 8 201.5t-57 142.5q-92 147 -85 246.5t122 216.5l94 94l65 -62q76 -72 58 -84q-10 -4 -44 -4t-41.5 -8t1.5 -37q8 -31 26 -147q12 -100 70 -187q92 -135 110.5 -238.5t-34.5 -203.5q-37 -76 -86 -117 q-27 -23 -40.5 -55.5t-19.5 -99.5q-12 -117 -22.5 -128.5t-65.5 15.5q-51 31 -74 117q-8 35 -33.5 83t-52.5 79q-86 102 -84 151z" />
<glyph unicode="%" horiz-adv-x="937" d="M24 1168.5q-6 23.5 1 72.5q10 82 41 127q43 61 140 46t130 -91q29 -59 20.5 -100t-55.5 -88q-55 -55 -126 -59.5t-120 42.5q-25 27 -31 50.5zM236 459q-18 45 27 157.5t272 575.5q94 199 118.5 232.5t63.5 23.5q68 -16 96.5 -54t28.5 -112q0 -51 -39 -144.5t-156 -328.5 q-195 -385 -221 -418q-33 -37 -99.5 -13.5t-90.5 81.5zM662.5 560q-3.5 44 37.5 110q25 41 44.5 53t50.5 8q61 -8 61 -37q-2 -18 -33 -28q-37 -12 -54 -61.5t7 -74.5q20 -20 55 33q43 63 72 49q18 -10 15 -51q-6 -55 -80 -98l-76 -39l-49 47q-47 45 -50.5 89z" />
<glyph unicode="&#x26;" horiz-adv-x="804" d="M21.5 523q-11.5 163 87.5 327q51 82 60 116.5t1 112.5q-14 113 20 213q29 84 61.5 121t100.5 60q70 23 130.5 -26.5t60.5 -127.5q0 -39 -74 -191q-41 -84 -51 -110.5t-8 -43t22 -38.5q39 -43 63.5 -37t71.5 66q43 55 95.5 75.5t87 -1t34.5 -76.5q0 -47 -49 -144l-47 -94 l37 -78q39 -84 39 -89t-23.5 -3t-56.5 8q-55 8 -75.5 -1t-59.5 -62q-78 -100 -129 -144.5t-117 -62.5q-51 -12 -79.5 -10t-73.5 22q-117 55 -128.5 218zM322 733q0 -76 24 -74q27 0 33 82q2 41 -3 57.5t-22 16.5q-18 0 -25 -18.5t-7 -63.5zM322 1276q0 -8 6 -11t14 3 q20 10 20 20q0 8 -20 8q-8 0 -14 -6t-6 -14z" />
<glyph unicode="(" horiz-adv-x="430" d="M20 725q0 145 78 400.5t156 359.5q47 68 64.5 78t37.5 -11q20 -20 16.5 -54t-40.5 -155q-43 -139 -44 -195t36 -302q20 -133 36 -332q14 -197 37 -233q14 -27 10 -43.5t-32 -42.5q-63 -59 -140 -32t-120 126q-29 66 -62 217t-33 219z" />
<glyph unicode=")" horiz-adv-x="477" d="M20 1497h86q78 0 148 -42t102 -109q33 -74 70 -238q31 -123 32 -172t-22 -172q-31 -170 -61.5 -253t-98.5 -185q-53 -78 -104 -125t-84 -47q-72 0 16 360q61 248 61.5 403.5t-59.5 305.5q-63 168 -69 211z" />
<glyph unicode="*" horiz-adv-x="503" d="M26 1290q9 10 44 17q43 10 53 24.5t10 67.5q0 63 14.5 72.5t73.5 -15.5q29 -14 48 -12t46 22q43 29 89.5 31t62.5 -22q14 -20 16 -152q0 -90 -7 -109.5t-46 -29.5q-57 -10 -57 -49t-41 -39q-39 0 -125 -70q-96 -82 -135 -61.5t-35 153.5q6 100 -10 144q-10 18 -1 28z" />
<glyph unicode="+" horiz-adv-x="1173" d="M20 872q0 41 19.5 55.5t112.5 37.5q125 31 190 30q43 0 51 13.5t8 87.5q0 106 -26 170q-29 67 -6 90q20 23 84 22q53 0 80.5 -36.5t41.5 -129.5q4 -29 6.5 -44t9.5 -33.5t13 -25.5t22.5 -15.5t30 -10.5t44 -4t57 -1t78.5 1q119 4 168 -3t76.5 -27.5t56.5 -75.5 q20 -39 16 -53.5t-41 -42.5q-47 -37 -164 -52q-100 -10 -187 -31.5t-112 -41.5q-27 -23 -26 -68q0 -53 -35 -147q-18 -63 -33.5 -83t-42.5 -20q-47 0 -71.5 37t-34.5 121l-9 98l-139 8q-94 4 -126 15.5t-62 48.5q-49 59 -50 110z" />
<glyph unicode="," horiz-adv-x="270" d="M31 403q-21 150 4 181q45 55 111.5 23t89.5 -115q23 -74 9 -140.5t-55 -111.5q-90 -98 -131 22q-16 51 -28 141z" />
<glyph unicode="-" horiz-adv-x="718" d="M43 733q-68 88 84 121q64 14 170 20q209 16 248 17q57 4 104 -27q137 -90 -94 -157q-35 -10 -80 -21q-190 -41 -285.5 -30.5t-146.5 77.5z" />
<glyph unicode="." horiz-adv-x="215" d="M21.5 435q-5.5 44 19.5 75q25 27 85 -11t67 -83q6 -37 -14.5 -70t-49.5 -33q-37 0 -69.5 39t-38 83z" />
<glyph unicode="/" horiz-adv-x="526" d="M20.5 439q-4.5 50 42.5 141q49 102 127 335q91 261 181 449q39 80 72.5 135t43.5 53q29 -10 17 -190t-53 -336q-43 -182 -117 -360q-72 -188 -82 -244q-14 -68 -61.5 -86.5t-108.5 20.5q-57 33 -61.5 83z" />
<glyph unicode="0" horiz-adv-x="772" d="M20 797q-2 178 22 302t81 238q39 76 79 102t138 38q219 25 316.5 -90t95.5 -402q0 -145 -41 -292.5t-107 -239.5q-45 -66 -151.5 -123.5t-180.5 -57.5q-137 0 -193 119t-59 406zM207 702q6 -201 12 -240.5t37 -43.5q49 -8 111.5 54.5t95.5 154.5q25 68 33 139.5t8 228.5 q0 184 -6 226.5t-37 62.5q-74 53 -120 16.5t-95 -186.5q-29 -84 -35 -155.5t-4 -256.5z" />
<glyph unicode="1" horiz-adv-x="581" d="M35 1270q43 133 125 209q41 37 60.5 43t47.5 -9q41 -18 67.5 -113t47.5 -304q12 -137 31 -303q12 -129 -11 -240q-16 -78 -14 -99.5t35 -45.5q45 -35 90 -35q47 0 47 -30t-49 -30q-51 0 -127 -32q-59 -27 -91 -29t-140 10q-82 12 -104.5 42t24.5 67q53 45 69.5 143 t16.5 365v340l-43 -31q-43 -31 -72 -31q-47 0 -10 113z" />
<glyph unicode="2" horiz-adv-x="753" d="M26 502.5q9 50.5 50 165.5q59 164 164 383q145 285 114 354q-6 12 -20 12q-35 0 -111 -40t-108 -79q-72 -82 -72 -6q2 45 94.5 138.5t147.5 105.5q123 27 208 -30.5t101 -174.5q29 -178 -160 -555q-111 -223 -110 -244q0 -23 186 -12q82 6 127 5t70.5 -9t24.5 -26.5 t-11 -47.5q-37 -78 -254 -100q-90 -10 -215 -41q-106 -31 -156.5 -7.5t-68.5 107.5q-10 51 -1 101.5z" />
<glyph unicode="3" horiz-adv-x="751" d="M20 573q2 86 13 86q2 0 8 -6q8 -14 38 -34.5t62 -34.5l82 -35l80 78q76 72 107.5 129t31.5 121v65l-129 -10q-111 -10 -141.5 8t-30.5 90q0 66 66 141q188 219 149 242q-20 12 -106 -45q-63 -43 -121.5 -48t-87.5 28q-33 39 7 90t140 102q98 47 152.5 47t120.5 -47 q51 -37 64.5 -97.5t-7.5 -162.5q-23 -111 -4 -117q41 -14 99.5 -59t82.5 -80q35 -53 35 -193.5t-35 -222.5q-35 -84 -113.5 -174t-142.5 -123q-80 -43 -155.5 -39t-134 39t-94.5 104.5t-36 157.5z" />
<glyph unicode="4" horiz-adv-x="641" d="M20 1008q0 51 6.5 93t14.5 46q20 10 20 145v135l33 -65q33 -68 8 -90q-18 -18 -21 -115.5t11 -155.5q20 -80 152 -14q45 23 51 43.5t-4 114.5q-15 132 20 241q23 82 35 97.5t51 3.5q86 -20 118 -82t30 -197q-2 -74 5 -101.5t34 -43.5q37 -29 37 -57.5t-37 -53.5 q-29 -18 -35 -57t-6 -180q0 -203 -13 -287q-8 -49 -20 -61.5t-51 -12.5q-104 0 -141 71t-37 271v85t-6.5 54.5t-11.5 32.5t-24.5 8.5t-38 -4t-57.5 -18.5q-72 -27 -97.5 5t-25.5 149z" />
<glyph unicode="5" horiz-adv-x="815" d="M21 1068q-1 79 26 302q8 72 49 101t162 47q121 16 183.5 16t105.5 -21q88 -39 22 -92q-55 -43 -190 -67q-90 -16 -106.5 -28.5t-16.5 -57.5v-66l147 -12q152 -10 240 -49q55 -27 78.5 -51.5t48.5 -83.5q23 -63 25 -99.5t-15 -118.5q-61 -291 -235 -400t-373 18 q-86 53 -126 149t-7 168q25 55 53.5 47t91.5 -86q68 -80 115 -85t111 63q53 53 100 140t47 130q0 47 -45 69.5t-113.5 13.5t-132.5 -48q-74 -45 -123 -47t-90 38q-31 31 -32 110z" />
<glyph unicode="6" horiz-adv-x="901" d="M20.5 838q2.5 43 40.5 188q89 330 228 455q109 92 237 32q47 -20 47 -39.5t-45 -62.5q-29 -25 -48 -78t-42 -166q-43 -190 -43 -262q0 -61 -24 -86q-12 -14 -11.5 -19t17.5 -5q12 0 32.5 24.5t36.5 57.5q51 109 125 132t195 -34q84 -39 104.5 -86t-2.5 -146 q-70 -307 -333 -399q-90 -33 -143.5 -27.5t-137.5 50.5q-90 49 -132 113.5t-77 205.5q-27 109 -24.5 152zM516 610q0 -45 80 19q27 20 57 51q47 49 65.5 81.5t18.5 69.5q0 45 -10 54.5t-59 9.5q-41 0 -58.5 -10.5t-29.5 -42.5q-16 -45 -40 -129t-24 -103z" />
<glyph unicode="7" horiz-adv-x="679" d="M25 1432q-6 20 0 34.5t36.5 24.5t80.5 16.5t134 10.5q174 10 243 -6.5t110 -77.5q33 -47 30.5 -145.5t-41.5 -205.5q-23 -70 -129 -426q-37 -127 -72.5 -230t-49.5 -118q-33 -37 -84 -37q-98 0 -143.5 87t-12.5 210q35 123 106.5 360.5t94.5 305.5q37 100 27.5 121.5 t-93.5 21.5q-219 0 -237 54z" />
<glyph unicode="8" horiz-adv-x="606" d="M23.5 576.5q9.5 54.5 70.5 211.5q51 127 53.5 172.5t-38.5 88.5q-68 72 -64 202.5t78 208.5q23 25 58.5 47.5t60.5 28.5q49 14 111.5 9t113.5 -32q37 -18 49 -77.5t-6 -137.5q-20 -88 -14 -147t43 -133q45 -90 47 -247t-41 -241q-31 -66 -116 -112.5t-185 -59.5 q-82 -8 -126 14.5t-75 88.5q-29 61 -19.5 115.5zM149 1289q-6 -19 9 -46q31 -68 72.5 -39t41.5 117q0 68 -16 72t-68 -50q-33 -35 -39 -54zM272 557q6 0 15 2q31 4 59.5 57t40.5 129q10 74 -16 70q-33 -2 -74 -90q-78 -162 -25 -168z" />
<glyph unicode="9" horiz-adv-x="677" d="M21.5 1084.5q-11.5 111.5 54.5 234.5q35 68 65.5 98.5t98.5 65.5q90 43 147 43t150 -41q43 -20 59 -50t39 -130q25 -117 22.5 -281t-32.5 -479q-6 -45 -11.5 -100.5t-8.5 -83t-3 -29.5q0 -12 -61 -39q-43 -18 -61.5 -13t-53.5 42q-41 37 -49 81q-8 43 -12 271 q-6 262 -25 291q-14 20 -68 -19q-68 -51 -157 -8q-82 35 -93.5 146.5zM139 1118q0 -66 16.5 -77t71.5 18q82 41 107.5 86t25.5 145q0 113 -22.5 124t-91.5 -60q-61 -68 -84 -116t-23 -120z" />
<glyph unicode=":" horiz-adv-x="223" d="M20 555q0 14 35 18.5t75 -5t52 -25.5q27 -33 5.5 -66t-70.5 -39q-27 -4 -43.5 6.5t-28.5 38.5q-25 49 -25 72zM61 1010q0 39 17.5 43t73.5 -21q33 -14 46 -42.5t0.5 -51.5t-42.5 -23q-45 0 -70 26t-25 69z" />
<glyph unicode=";" horiz-adv-x="247" d="M22 604.5q3 55.5 11 65.5q41 53 108 -19q63 -72 61.5 -179t-67.5 -136q-72 -33 -89 -11.5t-23 154.5q-4 70 -1 125.5zM88 1030q0 59 21.5 64.5t72.5 -41.5q45 -45 45 -91.5t-45 -46.5q-94 0 -94 115z" />
<glyph unicode="&#x3c;" horiz-adv-x="888" d="M29 795q18 49 65 86t209 133q172 100 281 180q90 67 151 106q43 27 71 12.5t52 -73.5q10 -29 11 -50.5t-14 -48t-43 -54t-84 -68.5t-127 -88t-181 -117q-106 -66 -107 -78q0 -16 84 -28.5t191 -12.5q127 0 137 -20q12 -20 66 -23l-168 -12q-47 -2 -119 -4 q-342 -14 -393 4q-53 18 -77 63.5t-5 92.5z" />
<glyph unicode="=" horiz-adv-x="821" d="M31 797q-33 49 24 65q29 8 346 6q201 -2 257.5 -8t60.5 -26q2 -14 -11.5 -25.5t-51.5 -24t-98 -26t-159 -31.5q-154 -31 -227 -12q-100 23 -141 82zM39 993q0 25 87 48.5t224 33.5q236 20 296.5 16t103.5 -36q47 -37 51 -64.5t-35 -60.5q-43 -39 -304 -35t-343 43 q-80 41 -80 55z" />
<glyph unicode="&#x3e;" horiz-adv-x="698" d="M21 676.5q2 19.5 28 54.5q33 47 240 191q82 55 141 104t64 59q2 14 -14.5 33t-45.5 35q-63 35 -120.5 82t-57.5 65q0 25 68 -2q33 -14 53 -30q23 -23 135 -78q100 -47 133 -75t33 -68q0 -51 -54.5 -110.5t-181.5 -148.5q-297 -207 -338 -223q-39 -16 -53 13q-2 2 -16 38 q-16 41 -14 60.5z" />
<glyph unicode="?" horiz-adv-x="477" d="M23 1323q-10 10 32.5 59t87.5 78q143 88 250 -33q39 -45 51.5 -76.5t12.5 -95.5q0 -84 -27 -145t-135 -227q-41 -61 -66.5 -113.5t-21.5 -63t-2 -25.5t-21 -26q-37 -33 -85 0t-66 105q-20 74 -2 127t116 221q109 182 119 246q10 43 4 53t-39 10q-51 0 -127 -49 q-18 -14 -37.5 -25.5t-30.5 -16.5t-13 -3zM143 424q10 29 39 29t54 -29q23 -27 12.5 -58.5t-39.5 -31.5q-31 0 -53.5 31.5t-12.5 58.5z" />
<glyph unicode="@" horiz-adv-x="1017" d="M20 626q-2 38 15 117q29 125 55 193q23 57 144 174t223 180q70 43 133 47q150 0 255 -87t137 -229t-9 -325q-27 -98 -65 -140t-115 -64q-57 -14 -77 -10.5t-50 40.5q-37 45 -58.5 50.5t-36.5 -27.5q-12 -35 -83.5 -31t-108.5 41q-41 39 -41 139q0 106 36 167t128 108 q68 33 95.5 37t66.5 -13q47 -18 81.5 -72.5t36.5 -109.5q0 -27 6 -27q2 0 7 11q6 29 28 75q25 49 -5 139.5t-91 149.5l-65 64l-117 -25q-117 -25 -160 -53q-68 -43 -137.5 -230.5t-69.5 -326.5q0 -49 27.5 -106.5t70.5 -96.5q29 -25 67 -29t167 2q190 14 190 -4t-81.5 -62 t-147.5 -61q-119 -35 -247 51.5t-177 233.5q-25 72 -27 110zM425 724q-1 -54 30 -65q12 -4 29.5 19.5t35 67t29.5 96.5q14 55 -17 55q-35 0 -73 -66q-33 -53 -34 -107z" />
<glyph unicode="A" horiz-adv-x="792" d="M28 520q24 206 105 486q47 164 82 325q27 148 64 234q18 45 36.5 59t55.5 14q94 0 148 -115.5t108 -426.5q31 -166 92 -410q39 -162 49 -224q4 -26 4 -45q0 -26 -8 -36q-18 -25 -98 -28h-18q-67 0 -103 20q-31 16 -55.5 79.5t-24.5 127.5q-1 80 -57 116q-31 20 -68 19 q-30 0 -64 -13q-14 -4 -23 -21t-9 -36q0 -61 -44 -187t-77 -155q-28 -25 -51 -25q-12 0 -23 7q-29 19 -29 112q-1 51 8 123zM294 808q12 -63 58 -69q11 -2 21 -2q33 1 41 27q4 13 3 35q0 40 -11 110q-33 164 -57 164h-1q-20 0 -41 -100q-17 -68 -17 -119q0 -25 4 -46z" />
<glyph unicode="B" horiz-adv-x="903" d="M20 1368l46 55q46 58 206 115q125 45 181.5 45t148.5 -43q47 -20 59.5 -40.5t18.5 -78.5q1 -14 1 -27q0 -67 -26 -108q-33 -47 -33 -78q0 -9 2 -16q12 -33 87 -51q156 -41 170 -202q1 -15 1 -31q0 -149 -120 -330q-213 -316 -399 -316q-29 0 -58 8q-129 40 -180 132 q-40 73 -40 192q0 33 3 70q16 174 25 366l12 246q-53 45 -105 92zM381 772q0 -199 16 -199q27 0 97.5 88.5t130 191.5t59.5 142q-2 19 -76 19h-11q-85 -2 -148 -23l-68 -20v-199zM381 1307q0 -66 5 -99.5t16.5 -45t31 2t49.5 47.5q37 39 78 118t41 108q0 20 -110 20h-111 v-151z" />
<glyph unicode="C" horiz-adv-x="710" d="M27 903q43 260 85 383t103 174q27 24 125 49q90 25 110.5 26t59.5 -19q59 -29 97 -73t38 -79q0 -31 -13.5 -41t-36 1t-46.5 44q-39 46 -59 46h-2q-20 -3 -31 -60q-20 -113 -43 -228q-27 -142 -30 -336q0 -21 -1 -40q0 -154 23 -156q20 0 104 72l82 69l51 -49 q29 -29 38 -57.5t9 -81.5q0 -86 -37 -130t-135 -73q-55 -17 -117 -17q-23 1 -46 3q-87 8 -154 43q-81 45 -139 219q-41 124 -42 230q0 42 7 81z" />
<glyph unicode="D" horiz-adv-x="858" d="M20 1364l54 55q37 39 113.5 73t166.5 52q20 4 43 4q57 0 131 -24q104 -34 191 -101q73 -53 103 -163q17 -61 16 -125q0 -52 -11 -107q-35 -164 -118.5 -282.5t-262.5 -253.5q-133 -98 -208 -98h-10q-76 6 -130 132q-16 43 -16 134q0 47 4 108q6 53 12 145q22 264 22 321 q0 53 -32 75q-8 6 -14 10zM416 737q5 -5 12 -5q20 0 62 40q56 55 105.5 136t51.5 128q4 78 17 121q6 21 6 44q0 37 -17 79q-27 66 -78 100q-57 37 -108 37q-29 0 -36 -8t-1 -37q5 -16 5 -72q0 -85 -11 -264q-12 -188 -11 -258q-1 -39 3 -41z" />
<glyph unicode="E" horiz-adv-x="620" d="M27 709q10 55 30 387q6 127 18.5 238.5t22.5 140.5l27 67l166 -14q176 -14 237.5 -29t67.5 -47q6 -18 -13.5 -35.5t-66.5 -38.5q-88 -41 -119 -41t-54.5 -54t-23.5 -128v-80l132 12q67 8 96 8q7 -1 11 -1q24 -2 24 -23q0 -59 -174 -115l-82 -24l-13 -125 q-14 -121 -26 -166q-3 -10 -3 -19q0 -29 35 -29q5 0 11 1q39 6 112 41q83 37 122 37q16 0 24 -6q12 -8 12 -26q0 -29 -29 -85q-29 -57 -157.5 -121.5t-216.5 -68.5q-47 0 -72 10t-47 35q-34 43 -50 132q-9 47 -8 90q0 40 7 77z" />
<glyph unicode="F" horiz-adv-x="610" d="M23 936q-3 115 -3 206q0 106 4 180q7 136 23 183t57 72q35 18 51.5 17t104.5 -25q100 -31 197 -31q53 0 74.5 -7t21.5 -24q0 -28 -60 -28h-4q-119 0 -138 -30t-19 -202v-207l131 -14q125 -14 125 -49q0 -45 -174 -74l-78 -12l-8 -285q-4 -170 -15 -244.5t-36 -101.5 t-80 -27q-61 0 -102.5 39t-51.5 105q-8 53 -20 559z" />
<glyph unicode="G" horiz-adv-x="944" d="M57 508q-35 128 -35 261q0 171 58 351q96 307 244 424q78 62 88 74q12 10 38.5 15t49 2t22.5 -13q0 -14 115 -51q150 -49 203 -135q17 -28 17 -50q0 -33 -36 -55q-18 -10 -48 1t-89 52q-104 74 -129 74q-45 0 -145 -289q-31 -90 -40.5 -161.5t-9.5 -233.5 q0 -172 7.5 -219t33.5 -72q28 -24 59 -24q21 0 44 11q55 28 141 134q99 126 99 192q0 54 -66 68q-68 12 -97.5 38t-10 51.5t80.5 39.5q87 22 143 22q65 0 89 -30q25 -27 36 -177q5 -63 5 -116q0 -74 -9 -129q-20 -125 -131.5 -222t-273.5 -130q-77 -15 -114 -15h-4 q-36 1 -95 23q-98 37 -151.5 102.5t-88.5 186.5z" />
<glyph unicode="H" horiz-adv-x="909" d="M25 653q12 160 28 527q8 227 17 286.5t36 79.5q43 33 93 33q41 0 87 -22q102 -48 132 -156q20 -80 20 -219v-146h180v107q0 59 7.5 108t23 119t21.5 94q8 54 20 64q8 7 37 7q12 0 27 -1q70 -6 106 -55q25 -35 28 -127q1 -25 1 -70q0 -119 -6 -379q-12 -451 -31 -524 q-16 -57 -61 -64q-16 0 -50 2q-55 4 -79.5 33t-34 100.5t-9.5 231.5v258l-53 -14q-102 -25 -130.5 -52.5t-33.5 -107.5q-6 -147 -39.5 -319.5t-60.5 -196.5q-49 -50 -97 -50q-47 0 -93 46q-57 55 -77 147q-13 59 -13 150q0 50 4 110z" />
<glyph unicode="I" horiz-adv-x="780" d="M21 310.5q2 13.5 28 33.5q37 29 94 39l54 14v344q0 338 20 416q15 48 15 85q0 30 -10 52q-22 52 -97 86q-88 39 -88 58q0 14 91 46t159 40q21 3 46 3q74 0 191 -22q72 -13 84 -33q3 -5 3 -10q0 -20 -31 -55q-33 -33 -36 -59q0 -4 -1 -9q0 -29 14 -100q13 -66 13 -121 q0 -46 -9 -84q-22 -84 -22 -343v-23v-275l57 4h11q43 -1 95 -29q58 -32 58 -63q0 -10 -13.5 -24.5t-31.5 -24.5q-49 -23 -215 -62.5t-219 -39.5q-70 0 -146 34.5t-98 75.5q-18 33 -16 46.5z" />
<glyph unicode="J" horiz-adv-x="841" d="M20 599v7q0 45 31 68q18 16 33.5 3t50.5 -69q59 -92 103 -112q43 -22 96 -22h5q56 1 79 24q27 27 27 397q0 7 -1 13q0 384 -26 403q-23 20 -105 32q-59 8 -115.5 50.5t-56.5 79.5q0 20 11 24q16 7 241 21q262 16 338 16h15q61 -2 71 -31q3 -7 3 -15q0 -26 -38 -56 l-49 -39l6 -375q2 -69 2 -130q0 -257 -27 -387q-34 -161 -124 -210q-53 -27 -144 -27q-15 0 -31 1q-114 5 -190 44q-57 31 -105 82t-72.5 104.5t-27.5 103.5z" />
<glyph unicode="K" horiz-adv-x="933" d="M20 1438q2 62 10.5 79t26.5 31q27 21 67 21q14 -1 30 -3q60 -10 108 -55q39 -41 82 -180q37 -135 51 -151q2 -2 5 -2q16 0 65 57q51 72 133 147.5t102 75.5q22 0 22 -19q0 -16 -15 -44q-20 -41 -80 -123q-100 -145 -101 -172q0 -27 86 -125q70 -78 168.5 -237.5 t122.5 -237.5q14 -41 10 -59.5t-32 -45.5q-46 -40 -97 -40h-2q-52 1 -98 46q-45 47 -147 211q-41 66 -77 114t-46 48q-23 0 -33 -217q-2 -121 -12.5 -177t-32 -84t-70.5 -46q-20 -8 -41 -8q-24 0 -48 10q-46 18 -64 59q-27 59 -70 695q-13 194 -19 282q-4 61 -4 109 q-1 21 0 41z" />
<glyph unicode="L" horiz-adv-x="815" d="M23 1047q-3 37 -3 76q0 109 22 231q28 164 69 196q39 29 88 29q13 0 27 -2q66 -10 120 -66q41 -39 56.5 -74.5t23.5 -103.5q8 -56 7 -116q0 -51 -5 -105q-14 -137 -25 -412l-10 -307l146 -2q135 -1 192 -15q64 -15 64 -51q0 -29 -68 -67q-74 -41 -182 -68 q-100 -27 -154 -71q-57 -47 -116 -47q-24 0 -47 8q-83 26 -130 131q-29 72 -47 373q-16 326 -28 463z" />
<glyph unicode="M" horiz-adv-x="1087" d="M23 621q43 641 61 716q10 55 20 127q10 53 22.5 63.5t63.5 10.5q78 0 140.5 -74.5t126.5 -242.5q29 -76 56.5 -130.5t35.5 -54.5q20 0 67 107q8 16 21 45q90 203 114.5 236.5t84.5 33.5h12q82 0 106 -24q39 -49 76 -277.5t37 -431.5v-20q-1 -122 -23 -283 q-24 -174 -47 -201q-25 -30 -73 -30q-11 -1 -23 1q-65 8 -98 52q-29 35 -34 94q-2 23 -2 73q0 80 5 230q5 133 5 212q0 105 -9 112q-4 4 -14 -4q-31 -25 -66 -152q-31 -109 -53.5 -141.5t-67.5 -32.5q-86 0 -141 151q-28 84 -47 84h-2q-20 -6 -21 -118q0 -76 -8 -138.5 t-21.5 -137.5t-21.5 -126l-12 -114l-84 -19q-40 -8 -67 -8q-30 0 -44 10q-40 31 -62 152q-16 86 -16 177q0 36 3 73z" />
<glyph unicode="N" horiz-adv-x="825" d="M23 805q37 623 53 639q38 33 74 36h8q33 0 80 -22q49 -27 70.5 -60.5t62.5 -154.5q63 -186 131.5 -342t91.5 -162q8 -4 14 35q8 66 8 336q0 377 23 455q16 61 53 73q8 2 15 2q31 0 69 -36q25 -24 28 -124q1 -33 1 -103q0 -139 -4 -425q-8 -412 -16.5 -520t-32.5 -133 q-30 -15 -50 -21q-2 0 -3 -1q-20 1 -53 51q-36 56 -81 143.5t-121 259.5q-33 72 -54 109t-36.5 50t-22.5 -9.5t-11.5 -69.5t-4.5 -131q0 -211 -11 -291q-8 -55 -22 -65.5t-77 -10.5q-84 0 -107 27q-36 46 -60 188q-17 103 -17 202q0 38 2 75z" />
<glyph unicode="O" horiz-adv-x="718" d="M20 785q0 49 33 202q76 365 189 467q43 41 67.5 41t98.5 -37q78 -39 124 -109.5t109 -248.5q41 -120 51 -176q6 -35 7 -75q0 -24 -3 -50q-14 -135 -60 -265.5t-104 -189.5q-43 -47 -71.5 -59.5t-89.5 -12.5q-135 0 -207 77t-117 272q-27 115 -27 164zM319 618 q-1 -88 21 -101q4 -2 10 -2q22 0 64 46q45 47 64.5 96.5t41.5 169.5q17 90 17 161q-1 6 -1 12q-2 75 -28 192q-4 27 -14.5 46t-20.5 19q-35 0 -94.5 -245.5t-59.5 -393.5z" />
<glyph unicode="P" horiz-adv-x="757" d="M23 1145q0 41 5 87t12 85t15 82t11 61q8 70 49 90q19 7 72 7q63 0 173 -10q204 -19 252 -44q43 -25 84 -116t41 -162q0 -109 -94 -237t-219 -189l-64 -31l-8 -256q-4 -170 -12 -219t-33 -70q-39 -27 -91 -29h-6q-48 0 -81 25q-43 31 -65 117q-16 63 -15 135q0 27 2 55 q2 35 2 68q0 92 -16 174q-13 67 -13 116q0 36 7 62q9 29 9 59q0 34 -11 70q-6 29 -6 70zM356 1182q0 -168 6.5 -197t40.5 -29q25 0 49.5 24t61.5 83q39 66 51.5 107.5t12.5 117.5q0 84 -8.5 108t-43.5 38q-55 27 -86.5 28.5t-51 -27t-26 -86t-6.5 -167.5z" />
<glyph unicode="Q" horiz-adv-x="847" d="M53 1126q37 178 85 279.5t118 148.5q62 42 122 42q8 0 16 -1q67 -6 167 -67q70 -43 104.5 -83t75.5 -122q76 -145 85 -223q1 -14 1 -31q0 -78 -32 -221q-31 -143 -33 -183v-7q0 -38 20 -95q20 -59 20.5 -77.5t-18.5 -34.5q-16 -14 -35.5 -12.5t-58.5 22.5q-47 25 -69 25 h-3q-22 -3 -98 -40q-100 -52 -179 -52h-3q-80 1 -156 59q-162 117 -162 392q0 124 33 281zM299 618q23 -23 56 -23q9 0 18 1q45 8 82 47q31 33 37 59q2 11 2 29q0 28 -5 72q-8 58 -8 82q0 11 1 15q5 15 40 15q49 0 75 59q21 46 21 112q0 16 -2 34q-6 88 -43 166 q-39 78 -63 86q-4 1 -8 1q-23 0 -62 -42q-88 -94 -135 -360q-28 -161 -28 -250q0 -79 22 -103z" />
<glyph unicode="R" horiz-adv-x="712" d="M20 1141q0 209 5 258t38 84q29 27 64 37t127 14q20 1 39 1q99 1 178 -17q94 -20 131 -60q33 -39 43 -121q3 -26 3 -50q0 -53 -15 -97q-27 -74 -103 -160q-79 -91 -79 -108q0 -16 61 -78q80 -74 130 -173.5t50 -181.5q0 -66 -8 -81t-41 -15q-29 0 -52.5 29t-70.5 119 q-119 229 -162 231h-1q-36 0 -48 -133q-2 -29 -4 -66q-4 -125 -12 -168t-33 -61q-41 -31 -87 -31q-7 0 -13 1q-54 5 -80 44q-49 76 -60 783zM309 1247q0 -121 6.5 -166t20.5 -45q37 0 98.5 77t77.5 147q15 52 15 78q0 28 -25 65q-23 33 -44.5 44t-68.5 11h-80v-211z" />
<glyph unicode="S" horiz-adv-x="698" d="M23 584q3 4 9 4q18 0 68 -31q68 -42 130 -42q76 0 143 63q65 63 65 134q0 124 -196 273q-92 70 -130 130.5t-38 131.5q0 66 27.5 116.5t95.5 109.5q45 39 77.5 51t96.5 14q149 0 149 -71q0 -19 -48 -19q-23 0 -58 4q-28 3 -50 3q-63 1 -84 -21q-13 -14 -13 -42 q0 -31 16 -79q16 -49 46.5 -86t92.5 -82q96 -74 169 -188.5t83 -206.5q2 -23 2 -41q0 -28 -5 -47q-9 -31 -55 -89q-86 -113 -212 -157q-59 -20 -111 -20q-59 0 -111 26q-48 25 -110 87q-51 51 -51 69q0 4 2 6z" />
<glyph unicode="T" horiz-adv-x="772" d="M29 1417q-9 10 -9 20q0 25 58 48q41 16 96 24q78 11 154 29q51 14 174 15h16q111 0 170 -13q45 -8 59.5 -30.5t-6 -45t-65.5 -34.5q-53 -14 -65.5 -31t-20.5 -90q-12 -117 -29 -504q-18 -403 -20 -406q-4 -6 -92 -6q-156 0 -179 146q-33 207 -38 359q-1 29 -1 59 q0 127 17 272l14 143l-106 10q-109 16 -127 35z" />
<glyph unicode="U" horiz-adv-x="1036" d="M20 1061q0 193 17.5 301.5t56.5 171.5q27 41 64 42h2q37 0 116 -36q49 -23 73 -48.5t44 -80.5q23 -57 25 -103v-10q0 -48 -15 -153q-31 -236 -35 -333q-1 -16 0 -31q0 -78 15 -136q23 -76 47 -85q4 -1 7 -1q23 0 61 41q82 88 115.5 209t50.5 387q20 342 88 342 q20 0 75 -43q61 -43 93 -165t49 -374q12 -221 32 -471l15 -178l-58 -37q-41 -23 -59 -23.5t-57 17.5q-102 53 -133 287l-17 115l-51 -82q-72 -113 -125 -152t-135 -39q-84 0 -147.5 44t-122.5 147q-57 100 -74 185t-17 292z" />
<glyph unicode="V" horiz-adv-x="915" d="M20 1374q0 57 8.5 70.5t43.5 13.5q49 0 88 -39q35 -35 68.5 -176t33.5 -252q0 -68 11.5 -142.5t28.5 -124.5t34 -50q10 0 18 11t8 28q0 39 31 125q47 141 117 385q88 299 119 338q31 36 78 36q42 0 96 -28q88 -45 92 -179v-12q0 -130 -80 -317q-35 -86 -139 -399 q-55 -164 -95 -250q-39 -86 -87 -121q-29 -22 -60 -22q-18 1 -36 9q-48 22 -119 91q-94 96 -105 176q-53 293 -125 622q-29 115 -29 207z" />
<glyph unicode="W" horiz-adv-x="1454" d="M32 1362q-10 60 -11 97q0 39 12 52q22 25 81 25h18q74 -4 128 -39q27 -16 55.5 -47t40.5 -57q23 -47 79.5 -279.5t56.5 -279.5q0 -33 30 -60q18 -14 23.5 -13t5.5 17q0 27 39 129q39 106 69 279q41 217 82 217q18 0 45 -39q43 -59 74 -158q41 -123 88 -231.5t62 -114.5 q14 -4 22 19q10 33 60 278q51 252 73.5 296t96.5 44q53 0 76.5 -12t54.5 -58q33 -47 39 -81q3 -14 3 -37q0 -31 -5 -78q-10 -111 -102.5 -486.5t-117.5 -404.5q-19 -28 -101 -28h-6q-87 1 -108 30q-23 27 -41 145q-14 115 -90 295q-71 176 -71 204q0 13 -9.5 21.5t-21.5 8.5 q-29 0 -29 -43q0 -49 -55 -238q-55 -205 -57 -276q-4 -96 -41 -141.5t-111 -45.5q-84 0 -119 21q-39 20 -84 152.5t-129 455.5q-83 337 -105 461z" />
<glyph unicode="X" horiz-adv-x="845" d="M43 377q-21 22 -21 58q0 70 80 190q173 259 173 364q0 8 -1 15q-12 63 -71 229q-51 137 -59 194q-2 13 -2 24q0 39 22 62q25 25 94 25q41 0 70.5 -16.5t77.5 -65.5q20 -23 40.5 -41t33 -26.5t14.5 -6.5q12 14 43 80q35 66 90 72q39 4 47 -5t8 -59q0 -72 -72 -219 l-73 -147l88 -178q103 -206 163 -404q38 -127 39 -184q0 -31 -12 -41q-33 -25 -88 -31q-16 -2 -33 -2q-39 0 -78 10q-68 18 -128 93t-76 161q-16 78 -39 111q-16 23 -26.5 18.5t-33.5 -49.5q-101 -178 -161 -229q-30 -26 -58 -26q-27 0 -51 24z" />
<glyph unicode="Y" horiz-adv-x="792" d="M33 1417q20 0 112.5 -101.5t118.5 -154.5q33 -65 49 -65q14 0 52 106q45 125 104 230.5t94 121.5q43 20 68 20q6 0 11 -1q26 -6 77 -57q39 -41 48 -64q5 -11 5 -29q0 -15 -4 -34q-14 -63 -49 -123q-29 -51 -90.5 -234.5t-120.5 -396.5q-53 -188 -77.5 -234.5t-72.5 -46.5 q-104 0 -130 84q-8 29 -8 69q0 76 32 193q39 143 39 201q0 14 -2 23q-12 49 -131 225q-136 208 -136 254q0 14 11 14z" />
<glyph unicode="Z" horiz-adv-x="829" d="M21 382q1 71 49 209q50 142 166 419q63 154 122 260q51 96 52 98q0 4 -111 14q-162 16 -168 68v4q0 39 115 70q83 22 169 22h35q104 -6 181 -45q41 -18 57.5 -38.5t20.5 -57.5q1 -6 1 -13q0 -64 -48 -222q-52 -176 -121 -324q-102 -229 -123 -268q-47 -106 -47 -123 q0 -18 166 -23q145 -2 205 -16q61 -12 67 -46q1 -4 1 -9q0 -29 -36 -49q-41 -24 -132 -39t-241 -21q-156 -10 -220 -10q-16 0 -26 1q-51 3 -85 27q-49 38 -49 112z" />
<glyph unicode="[" />
<glyph unicode="\" horiz-adv-x="256" d="M25 1268q10 129 22 118q2 -2 2 -8q10 -47 53 -131q66 -125 95.5 -263t35.5 -357q4 -186 0 -236.5t-26 -64.5q-20 -12 -33.5 -9.5t-32.5 27.5q-27 37 -59.5 207t-32.5 278q0 109 -18 197q-18 76 -6 242z" />
<glyph unicode="]" />
<glyph unicode="a" horiz-adv-x="784" d="M21 416q-1 6 -1 16q0 30 12 100q16 92 48.5 233.5t99.5 418.5q25 98 52.5 179t39.5 97q25 27 37.5 27t52.5 -29q121 -88 201 -248q33 -61 117 -367t84 -362q0 -47 -50 -88q-40 -33 -79 -33q-9 0 -19 2q-61 18 -107 69.5t-56 115.5q-12 78 -31 107.5t-66 45.5q-26 8 -49 8 q-100 0 -149 -151q-31 -92 -55.5 -128t-53.5 -36q-23 -1 -28 23zM215 795h74q74 -1 86 37q3 10 3 28q0 44 -22 133q-34 124 -34 181q0 16 -8.5 29.5t-20.5 13.5q-27 0 -37 -115q-10 -104 -27 -211z" />
<glyph unicode="b" horiz-adv-x="768" d="M20 604q6 104 26 230.5t20 263.5v12q0 186 30 279l27 98l215 4q73 3 120 3q54 0 72 -4q34 -7 80 -50q55 -55 55 -122q0 -56 -38 -120l-43 -70l43 -32q51 -39 86 -102.5t35 -121.5q0 -104 -56.5 -214.5t-141.5 -189.5q-84 -79 -190 -119q-65 -25 -124 -25q-36 0 -70 10 q-94 25 -122 76q-24 45 -24 160v34zM245 1150q5 -34 27 -34q25 0 130.5 105.5t105.5 132.5q0 21 -28 21q-22 0 -62 -13q-76 -25 -125 -72q-25 -20 -39 -63q-10 -32 -10 -58q0 -10 1 -19zM246 692q0 -63 1 -98t7 -61.5t13 -33.5t25.5 -2t38 20t54.5 46q63 57 125 181 q54 110 54 165q0 7 -1 13q-6 48 -67 48q-52 0 -144 -36l-106 -41v-201z" />
<glyph unicode="c" horiz-adv-x="647" d="M37 643q-18 72 -18 166q0 111 25 254q46 264 124 342q38 39 64 47q15 5 44 5q22 0 52 -3q86 -10 152.5 -61.5t66.5 -110.5q0 -42 -26 -42q-10 0 -25 7q-23 10 -62 39q-66 51 -84 51q-12 1 -19 -165q-4 -105 -5 -211q0 -60 2 -121q4 -166 20 -166q8 0 45 27.5t76 64.5 q80 71 115 71q5 1 9 -1q34 -10 34 -117q0 -229 -277 -303q-46 -12 -75 -12h-7q-30 2 -73 22q-55 25 -98.5 84t-59.5 133z" />
<glyph unicode="d" horiz-adv-x="712" d="M20 383l9 301q10 311 39 412q16 68 16 112.5t-12 114.5q-13 55 -13 87q-1 26 7 38q18 28 108 51q12 4 26.5 8t23.5 6.5t12 2.5h5q27 0 138 -33q123 -37 162 -62q25 -14 53.5 -41.5t42.5 -54.5q37 -59 50 -171q5 -44 5 -83q0 -59 -12 -104q-20 -72 -125.5 -217.5 t-261.5 -315.5l-150 -166q-63 59 -123 115zM164 1188q-1 -12 -1 -26q0 -20 2 -42q3 -37 11 -106q20 -127 33 -252q12 -106 29 -107q18 0 82.5 89.5t107.5 175.5q49 96 49 213q0 78 -8 101t-37 36q-22 9 -60 9t-91 -9q-41 -8 -62.5 -16.5t-37 -21.5t-17.5 -44z" />
<glyph unicode="e" horiz-adv-x="485" d="M25 899q10 406 26 477q16 68 70 84q19 7 78 17q123 20 189 20q70 0 77 -22q1 -2 1 -4q0 -28 -104 -76l-106 -47l-6 -195q-4 -59 -4 -98q0 -20 1 -34q3 -44 10 -56.5t30 -18.5q17 -5 30 -5q21 0 35 13q25 23 50.5 21t25.5 -29q0 -31 -72 -31q-68 0 -89 -44t-21 -193v-160 l100 -14q102 -14 103 -31q0 -25 -72 -73t-135 -66q-57 -16 -102 -16q-20 0 -36 2q-58 10 -73 49q-11 19 -11 206q0 124 5 324z" />
<glyph unicode="f" horiz-adv-x="694" d="M23 1206q-2 34 -2 63q0 70 13 112q19 60 72 87q29 13 117 13q49 0 115 -4q209 -16 235 -17q18 -2 30.5 -10t12.5 -18q0 -25 -47 -48.5t-127 -37.5t-103.5 -40t-23.5 -102v-88l127 -2q117 -2 171.5 -16.5t60.5 -44.5q1 -3 1 -6q0 -30 -59 -60q-63 -33 -163 -47 q-55 -8 -84 -21.5t-49.5 -52.5t-28.5 -94t-17 -164q-12 -193 -20 -202q-48 -37 -91 -37q-20 0 -40 8q-41 20 -54.5 94t-23.5 344q-10 250 -22 391z" />
<glyph unicode="g" horiz-adv-x="794" d="M23 750q-3 27 -3 55q0 147 70 332q82 221 193 301q53 37 81 46q14 5 34 5q17 0 38 -4q84 -14 129 -36t84 -65q49 -53 49 -87q0 -13 -8 -23q-10 -15 -29 -15q-29 0 -79 35q-58 41 -93 41q-10 0 -18 -3q-37 -15 -84 -120q-41 -90 -50 -147t-9 -248q0 -174 6 -225t28 -66 q10 -6 21 -6q62 0 178 168q57 83 57 122q0 42 -69 54q-43 8 -56.5 19.5t-13.5 40t13.5 41t52.5 18.5q35 7 67 7q37 0 68 -9q59 -16 82 -57q15 -26 15 -89q0 -54 -11 -133q-23 -174 -61 -229q-41 -53 -141.5 -100t-190.5 -56q-21 -1 -38 -1q-41 0 -63 6q-32 10 -88 49 q-70 51 -107.5 138t-53.5 241z" />
<glyph unicode="h" horiz-adv-x="821" d="M20 1260v22q0 78 25 123q30 56 75 56q22 0 48 -14q78 -42 104 -159q10 -39 11 -82q0 -82 12 -137q10 -39 22.5 -46t55.5 1q68 12 88 12q16 0 22 39t6 148q0 166 11.5 218t54.5 72q29 15 61 15q18 0 36 -4q52 -12 98 -58l51 -49l-8 -483q-4 -477 -21 -535q-23 -83 -87 -83 q-23 0 -50 10q-55 18 -93 126.5t-48 278.5q-4 72 -9.5 105.5t-20.5 50t-38 11.5t-68 -28q-35 -14 -43 -39.5t-8 -125.5q0 -150 -14 -209.5t-55 -77.5q-25 -12 -48.5 -8t-60.5 26q-63 37 -63 41q-4 4 -22.5 331t-23.5 452z" />
<glyph unicode="i" horiz-adv-x="720" d="M20 1399q0 14 17.5 26.5t52.5 22.5t69 18.5t85 17.5t79.5 13t75.5 11.5t54 7.5q106 18 155 18h9q47 -2 67 -27q15 -19 15 -38q-1 -13 -7 -25q-16 -32 -69 -53q-43 -15 -49 -29q-2 -5 -3 -16q0 -17 7 -50q10 -45 10 -156q0 -135 -15 -366l-14 -211l68 -28q66 -29 71 -80 q6 -35 -12 -51.5t-88 -45.5q-213 -86 -322 -86q-42 0 -120 60q-66 51 -66 76q0 4 2 8q10 16 84 53l76 35l6 393l4 393l-84 13q-55 8 -106.5 38.5t-51.5 57.5z" />
<glyph unicode="j" horiz-adv-x="800" d="M28 675q15 0 54 -34q41 -39 123 -84q51 -31 75 -34h7q22 0 55 14q43 18 50 35q3 6 3 23q0 24 -6 69q-12 86 -24 350l-11 248l-82 -11q-29 -4 -53 -4q-72 0 -106 35q-15 15 -15 31q0 21 25 43q28 22 227 71q137 35 253 41h37q87 0 124 -22q27 -16 12.5 -47t-57.5 -47 l-60 -23v-362q0 -322 -13 -418t-64 -146q-50 -50 -143 -50q-37 0 -81 8q-155 28 -235 126q-103 131 -103 177q0 11 8 11z" />
<glyph unicode="k" horiz-adv-x="688" d="M22 984q-2 141 -2 242q0 231 11 249q14 22 36 22q34 0 87 -51q39 -39 65.5 -109.5t26.5 -134.5q0 -44 19 -44q8 0 20 9q27 18 61 74q78 127 172 195q35 24 52.5 24t17.5 -24q0 -18 -115 -240l-115 -219l41 -45q57 -63 154.5 -237.5t108.5 -229.5q8 -51 0.5 -61.5 t-58.5 -10.5q-45 0 -68.5 20.5t-78.5 112.5q-82 133 -125 172l-47 43v-131q0 -150 -15.5 -204t-66.5 -74q-37 -16 -54.5 -13t-44.5 25q-39 37 -57 109q-18 67 -25 531z" />
<glyph unicode="l" horiz-adv-x="720" d="M20 906q-1 54 -1 102q0 246 28 340q20 70 34.5 90t43.5 20q47 0 92 -33q66 -47 84 -141t18 -379v-51q-1 -246 17 -280q9 -17 39 -17q31 0 84 18q14 6 22 9q47 16 99 24q35 5 62 5q12 0 24 -1q34 -4 34 -18q0 -66 -125.5 -144.5t-289.5 -113.5q-48 -11 -83 -11 q-40 0 -62 14q-42 26 -74 124q-40 113 -46 443z" />
<glyph unicode="m" horiz-adv-x="978" d="M23 782q8 285 30 424q25 135 51.5 173t102.5 38q74 0 108.5 -31.5t100.5 -162.5q16 -33 33.5 -63t31 -47t17.5 -17q18 0 27.5 21.5t41.5 146.5q35 116 72 153q33 35 83 39q7 1 13 1q40 0 60 -23q23 -25 63 -191q90 -356 100 -573q1 -25 0 -47q0 -175 -65 -217 q-18 -12 -33.5 -9.5t-34.5 23.5q-20 18 -30.5 72.5t-20.5 177.5q-23 360 -57 360q-27 0 -74 -166q-18 -66 -43 -123t-41 -75q-25 -25 -42 -27t-58 16q-45 16 -60.5 46t-25.5 112q-6 49 -27 57h-1q-15 0 -23 -82q-4 -47 -9 -126q-8 -178 -30.5 -240t-87.5 -88 q-24 -11 -47 -11q-26 0 -50 15q-44 27 -63 96q-14 45 -14 203q0 64 2 145z" />
<glyph unicode="n" horiz-adv-x="772" d="M22 508q-2 28 -2 55q0 84 19 160q24 84 24 260q0 51 -2 109q-4 71 -4 126q-1 50 3 88q8 78 28.5 110t65.5 46q26 7 65 7q25 0 57 -3q80 -8 119 -28q29 -14 49.5 -68.5t53.5 -202.5q27 -123 39 -141q16 -23 22 -88q6 -72 33 -78q14 -4 20 19q4 12 4 34q0 61 -20 72 q-16 12 -20 174q-1 31 0 58q0 118 12 178q8 37 20.5 50t38.5 13q47 0 51 -4q0 -4 9.5 -109.5t22.5 -266t18 -212.5q3 -39 3 -82q0 -109 -22 -236q-31 -177 -72 -208q-34 -26 -77 -26q-9 0 -19 2q-55 6 -92 44q-43 45 -115 228q-141 368 -180 368q-8 0 -13 -9t-8 -43t-5 -90 t-3 -161q0 -145 -19.5 -202.5t-64.5 -57.5q-31 0 -39 115z" />
<glyph unicode="o" horiz-adv-x="710" d="M37 596q-17 85 -17 168q0 97 23 192q105 410 205 514q71 70 107 70q5 0 10 -2q12 -4 12 -20q0 -8 23.5 -28t56.5 -36q53 -31 77.5 -66.5t65.5 -140.5q86 -227 90 -465v-22q0 -220 -76 -318q-74 -94 -214 -120q-42 -8 -81 -9q-88 0 -155 43q-90 56 -127 240zM284 1229 q-2 -15 -2 -39q0 -43 5 -115q12 -201 22 -366q2 -68 6 -103t9.5 -57.5t11.5 -27.5t16 -3q33 6 88 107q39 72 48.5 125t9.5 235q0 168 -7 226.5t-34 101.5q-16 27 -37 46t-33 19q-27 0 -74 -65q-25 -43 -29 -84z" />
<glyph unicode="p" horiz-adv-x="692" d="M20 731q4 399 25 471q10 37 10 63q0 28 -12 42q-12 18 -10 35.5t22 52.5q23 39 47.5 53t79.5 20q101 15 113 19q29 11 67 11q23 0 50 -4q69 -11 112 -42q78 -51 113 -121.5t35 -175.5q-2 -123 -47 -190.5t-168 -130.5q-6 -4 -21 -11q-35 -18 -49 -25t-32.5 -28.5 t-23.5 -32t-15.5 -54.5t-13.5 -78t-13 -118q-2 -27 -4 -38q-18 -160 -43 -189q-20 -27 -90 -27q-33 0 -52.5 5.5t-37 23t-23.5 50t-13 88.5q-6 41 -6 97v39q2 36 2 80q0 52 -2 115zM324 1157q0 -131 6 -176t22 -45q31 0 85.5 46t76.5 93q29 53 31 153v13q0 88 -25 113 q-22 24 -102 24h-6h-88v-221z" />
<glyph unicode="q" horiz-adv-x="794" d="M22 808q3 50 33 177q45 182 106 306t124 165q67 42 130 42h13q70 -5 125 -64q63 -66 86 -138q16 -59 21 -281q2 -54 2 -99q0 -139 -13 -187q-3 -12 -3 -26q0 -24 8 -53q14 -46 57 -138q31 -63 49 -120q14 -42 14 -59q0 -6 -2 -9q-12 -37 -45 -29t-74 59q-49 60 -64 60 t-85 -52q-74 -50 -152 -50q-37 0 -76 11q-118 35 -178 158q-43 96 -63 199q-13 66 -13 112v16zM364 612q-1 -14 -1 -25q0 -42 5 -55q5 -18 17 -18q70 0 70 102q0 26 -4 58q-5 43 -5 66q0 14 2 21q5 17 39 25q27 6 45.5 33t36.5 90q24 75 24 141q0 19 -1 36q-9 81 -62 200 q-47 109 -69 109q-35 -2 -62 -293q0 -12 -2 -27q-16 -193 -24 -297t-9 -166z" />
<glyph unicode="r" horiz-adv-x="620" d="M25 1163q-5 31 -5 64q0 35 6 71q11 70 37 107q10 16 47 34.5t80 28.5q48 12 93 12q101 0 184 -61q119 -87 120 -236q0 -85 -38 -158q-35 -69 -117 -148q-74 -68 -74 -89q0 -20 88.5 -145t116.5 -145q33 -25 36 -54.5t-28 -42.5q-12 -5 -26 -5q-39 0 -91 37 q-72 50 -118 130q-55 104 -98 142q-29 27 -34 23.5t-5 -46.5q0 -37 -32 -183.5t-42 -162.5q-8 -10 -29 12q-23 20 -41 379q-18 377 -30 436zM158 1122.5q0 -96.5 7 -112t50 -11.5q33 4 55.5 28t59.5 91q37 72 41.5 100t-11.5 48q-23 28 -45 28h-1q-23 0 -89 -20 q-51 -18 -59 -36.5t-8 -115z" />
<glyph unicode="s" horiz-adv-x="604" d="M25 588q2 2 6 2q19 0 78 -53q55 -49 105 -59q13 -3 24 -3q34 0 57 23q23 22 23 53q0 16 -6 35q-18 55 -101 164q-165 222 -165 398q0 46 11 89q29 109 62 156t86 63q39 11 78 11q49 0 96 -18q84 -32 143 -114q33 -46 33 -91v-5q-2 -47 -39 -70q-11 -7 -22 -7 q-20 0 -40 20q-30 32 -44 100q-12 55 -52 55q-34 0 -34 -17q0 -27 34 -153q27 -109 60 -184.5t94 -167.5q42 -61 62 -175q11 -59 10 -105q0 -43 -9 -74q-29 -117 -143 -141q-26 -6 -54 -6q-91 0 -190 63q-70 47 -126 119q-42 54 -42 79q0 8 5 13z" />
<glyph unicode="t" horiz-adv-x="1073" d="M27 1266q-6 18 -6 34q1 30 21 52q30 32 126 55q66 19 109 20q22 0 38 -6q41 -8 62 -8h8q124 19 242 19q63 0 125 -6q176 -16 245 -66q58 -43 58 -77q0 -33 -54 -60q-66 -31 -194 -41l-156 -11l6 -393q4 -158 4 -246q0 -58 -2 -84q-4 -66 -26 -83q-23 -12 -37 -9.5 t-35 21.5q-25 29 -41 143.5t-37 431.5l-12 185l-158 -4h-32q-109 1 -165 25q-64 28 -89 108z" />
<glyph unicode="u" horiz-adv-x="835" d="M28 1034q-8 60 -8 119q0 77 13 150q14 74 43 74q20 0 47 -34q27 -31 31 -274q2 -203 23.5 -310.5t70.5 -158.5q38 -41 61 -41q5 0 9 1q24 9 61 91q39 90 55.5 198.5t20.5 287.5q0 184 16 237q13 41 65 42h2q52 0 117 -40q76 -47 104.5 -166.5t45.5 -441.5q8 -163 8 -258 q0 -116 -12 -131q-25 -25 -111 -25q-66 0 -107.5 24.5t-76.5 86.5q-14 29 -25.5 29t-54.5 -25q-60 -34 -112 -34q-40 0 -75 20q-81 47 -124 198q-69 241 -87 381z" />
<glyph unicode="v" horiz-adv-x="819" d="M20 1399q0 14 86 57q78 39 100.5 39t74.5 -37q51 -35 84.5 -118t66.5 -246q63 -319 133 -410q15 -19 26 -19q21 0 27 70q8 68 27 90q18 18 18.5 110.5t18.5 160.5q6 31 41 186q27 115 45 115q23 0 29 -41q2 -12 2 -25q0 -34 -11 -80q-16 -57 -47 -204q-27 -121 -43 -142 q-14 -20 -14 -96q0 -74 -20 -115q-12 -18 -12 -40t12 -50q9 -25 9 -60q0 -39 -11 -89q-16 -76 -30 -88.5t-69 -12.5q-76 0 -110 11q-23 10 -115 191t-170 370q-33 80 -90.5 263t-57.5 210z" />
<glyph unicode="w" horiz-adv-x="1200" d="M20 1235q0 43 10.5 52t51.5 9q72 0 126 -66.5t103 -213.5q53 -164 78 -199q16 -18 23 -6q10 20 69 313q41 199 64 226q14 16 32.5 14t61.5 -25q74 -39 103.5 -96t70.5 -235q49 -209 82 -287l37 -82l37 102q37 111 65 254q31 143 65 233q31 83 51 84q2 0 3 -1 q28 -8 28 -72q0 -70 -32 -178q-43 -145 -107 -420q-2 -2 -2 -8q-49 -205 -65.5 -243t-65.5 -52q-21 -6 -40 -6q-49 0 -88 42q-54 58 -107 220q-70 207 -94 209q-12 2 -23 -19q-25 -43 -47 -169q-16 -95 -16 -147q0 -17 2 -30q4 -22 4 -41q0 -73 -58 -84q-9 -2 -19 -2 q-59 0 -118 66q-47 53 -65 125q-16 74 -88 254q-59 143 -95.5 277t-36.5 202z" />
<glyph unicode="x" horiz-adv-x="710" d="M23 1466q9 46 27 50q2 1 5 0q21 0 72 -29q94 -45 164 -285q27 -86 47 -86t98 152q47 90 71.5 119.5t53.5 29.5q88 0 88 -99q0 -66 -39 -177q-23 -63 -59 -144l-86 -178l43 -59q49 -68 115.5 -215.5t66.5 -184.5q0 -43 -57 -67q-26 -11 -49 -11q-28 0 -52 17 q-42 31 -83 129q-18 43 -38 75t-30 32t-24.5 -26t-24.5 -58q-51 -178 -131 -179q-83 0 -95 94q-2 15 -2 33q0 87 54 217q48 126 48 196q0 69 -44 167q-70 150 -110 290q-32 112 -31 171q0 14 2 26z" />
<glyph unicode="y" horiz-adv-x="692" d="M33 1313q-11 41 -11 70q0 31 13 47q19 23 55 23q32 0 78 -18q98 -38 127 -104q4 -10 51 -157q14 -49 29.5 -83t23.5 -34q18 0 58 96q66 158 100.5 211t69.5 53q27 0 37 -9t7 -49t-20.5 -99.5t-54.5 -182.5q-100 -330 -131 -440q-53 -193 -86 -258.5t-74 -65.5 q-76 0 -85 63q-1 8 -1 19q0 63 47 183l37 92l-53 98q-45 86 -118 268.5t-99 276.5z" />
<glyph unicode="z" horiz-adv-x="747" d="M20 487q2 88 140.5 419t187.5 362q21 12 21 37.5t-121 37.5q-180 14 -180 87q0 10 15 20t40 14q39 6 103 6q59 0 140 -5q169 -11 203 -31q29 -18 34 -42q2 -8 2 -23q0 -31 -7 -91q-6 -78 -33.5 -156t-105.5 -237q-125 -248 -144 -314l-10 -51l201 -10q205 -10 218 -23.5 t-7 -48.5q-20 -36 -218 -72q-155 -29 -257 -28q-28 0 -52 2q-96 6 -133 38t-37 109z" />
<glyph unicode="{" horiz-adv-x="370" d="M20 752l74 82q72 80 84 141t-16 190q-35 143 -32 214t44 112q20 25 53 38t57.5 10t24.5 -23q0 -23 -49 -62l-51 -39l45 -84q43 -86 69.5 -190.5t26.5 -188.5q0 -55 -13 -91t-52 -91l-66 -86l10 -256q6 -162 14.5 -215t32.5 -68q33 -27 33 -51q0 -33 -41 -16 q-27 10 -53 41q-29 29 -37 76t-12 198l-6 234q-72 63 -140 125z" />
<glyph unicode="|" />
<glyph unicode="}" horiz-adv-x="395" d="M20 154q0 14 58 28q129 27 88 260q-27 133 -27 175t23 114q18 57 16 84t-31 76q-51 92 -56 147.5t32 135.5q72 156 65.5 250t-88.5 94q-59 -1 -59 30q0 18 17.5 24.5t49 0.5t68.5 -27q59 -29 72.5 -50t40.5 -124q20 -78 19 -120t-25 -146q-23 -94 -24 -127t17 -47 q27 -20 68 -80q31 -43 31 -63.5t-25 -92.5q-23 -63 -24.5 -101t14.5 -120q35 -180 -13 -291.5t-161 -111.5q-51 0 -98.5 27.5t-47.5 54.5z" />
<glyph unicode="~" horiz-adv-x="716" d="M20 850q8 35 78 82q129 86 283 -37q51 -41 79.5 -49t94.5 2q82 10 118 -14.5t17 -77.5q-20 -66 -68.5 -95.5t-106.5 -22.5t-122.5 51t-116.5 118q-45 66 -60 74t-58 -15q-57 -31 -64 -55q-10 -29 -47 -8q-31 18 -27 47z" />
<glyph unicode="&#xa2;" />
<glyph unicode="&#xa3;" horiz-adv-x="712" d="M20 1029.5q0 17.5 21 49.5q31 47 41 207q6 160 33 201q16 27 51 35t139 10q106 2 143 -5t74 -40q53 -45 117 -60q37 -8 48 -18t3 -27q-16 -39 -65 -176q-45 -127 -103.5 -214t-140.5 -152l-82 -68v-154q0 -150 -12 -229q-10 -51 -22.5 -63.5t-53.5 -12.5q-51 0 -75.5 27 t-37 95.5t-16.5 219.5q-6 246 -39 316q-23 41 -23 58.5zM300 973.5q1 -17.5 26 -17.5t89 89t64 124q0 49 -53 23q-61 -35 -96 -113q-6 -10 -11 -20q-20 -68 -19 -85.5zM338 1368q0 -20 6 -35.5t14 -15.5q27 0 84.5 33t57.5 47q0 20 -82 20q-53 0 -66.5 -8t-13.5 -41z" />
<glyph unicode="&#xa7;" />
<glyph unicode="&#xab;" horiz-adv-x="595" d="M21 897q-3 18 16 51q27 49 86 88q82 53 108 37q4 -2 5 -6q0 -12 -33 -92q-23 -53 -23 -72.5t21 -42.5q27 -33 60.5 -98.5t33.5 -87.5q0 -6 -6 -12.5t-17 -6.5q-25 0 -104.5 65.5t-114.5 117.5q-29 41 -32 59zM258 913q-8 31 90 117q121 104 146 82q18 -16 -41 -98 q-45 -57 -27 -86q16 -18 86 -113q94 -125 53 -141q-45 -16 -182 102q-119 111 -125 137z" />
<glyph unicode="&#xad;" horiz-adv-x="718" d="M43 733q-68 88 84 121q64 14 170 20q209 16 248 17q57 4 104 -27q137 -90 -94 -157q-35 -10 -80 -21q-190 -41 -285.5 -30.5t-146.5 77.5z" />
<glyph unicode="&#xbb;" horiz-adv-x="567" d="M20 1087q0 33 78 -10q39 -20 76 -51q84 -72 111 -156q18 -59 13 -76.5t-52 -60.5q-70 -59 -133 -57q-33 0 -33 24q0 23 41 74q39 49 35 78t-66 121q-70 108 -70 114zM281 1067q0 41 59 27q47 -12 84 -52q51 -57 86 -141l37 -82l-60 -88q-45 -70 -97 -89t-87 22 q-14 16 -5 37.5t52 68.5q72 80 72 95.5t-70 92.5q-71 80 -71 109z" />
<glyph unicode="&#xbf;" />
<glyph unicode="&#xc0;" />
<glyph unicode="&#xc1;" />
<glyph unicode="&#xc2;" />
<glyph unicode="&#xc4;" />
<glyph unicode="&#xc7;" />
<glyph unicode="&#xc8;" />
<glyph unicode="&#xc9;" />
<glyph unicode="&#xca;" />
<glyph unicode="&#xcb;" />
<glyph unicode="&#xce;" />
<glyph unicode="&#xcf;" />
<glyph unicode="&#xd1;" />
<glyph unicode="&#xd3;" />
<glyph unicode="&#xd4;" />
<glyph unicode="&#xd6;" />
<glyph unicode="&#xd9;" />
<glyph unicode="&#xda;" />
<glyph unicode="&#xdb;" />
<glyph unicode="&#xdc;" />
<glyph unicode="&#xdf;" />
<glyph unicode="&#xe0;" />
<glyph unicode="&#xe1;" />
<glyph unicode="&#xe2;" />
<glyph unicode="&#xe4;" />
<glyph unicode="&#xe7;" />
<glyph unicode="&#xe8;" />
<glyph unicode="&#xe9;" />
<glyph unicode="&#xea;" />
<glyph unicode="&#xeb;" />
<glyph unicode="&#xee;" />
<glyph unicode="&#xef;" />
<glyph unicode="&#xf3;" />
<glyph unicode="&#xf4;" />
<glyph unicode="&#xf6;" />
<glyph unicode="&#xf9;" />
<glyph unicode="&#xfa;" />
<glyph unicode="&#xfb;" />
<glyph unicode="&#xfc;" />
<glyph unicode="&#x2000;" horiz-adv-x="820" />
<glyph unicode="&#x2001;" horiz-adv-x="1640" />
<glyph unicode="&#x2002;" horiz-adv-x="820" />
<glyph unicode="&#x2003;" horiz-adv-x="1640" />
<glyph unicode="&#x2004;" horiz-adv-x="546" />
<glyph unicode="&#x2005;" horiz-adv-x="410" />
<glyph unicode="&#x2006;" horiz-adv-x="273" />
<glyph unicode="&#x2007;" horiz-adv-x="273" />
<glyph unicode="&#x2008;" horiz-adv-x="205" />
<glyph unicode="&#x2009;" horiz-adv-x="328" />
<glyph unicode="&#x200a;" horiz-adv-x="91" />
<glyph unicode="&#x2010;" horiz-adv-x="718" d="M43 733q-68 88 84 121q64 14 170 20q209 16 248 17q57 4 104 -27q137 -90 -94 -157q-35 -10 -80 -21q-190 -41 -285.5 -30.5t-146.5 77.5z" />
<glyph unicode="&#x2011;" horiz-adv-x="718" d="M43 733q-68 88 84 121q64 14 170 20q209 16 248 17q57 4 104 -27q137 -90 -94 -157q-35 -10 -80 -21q-190 -41 -285.5 -30.5t-146.5 77.5z" />
<glyph unicode="&#x2012;" horiz-adv-x="718" d="M43 733q-68 88 84 121q64 14 170 20q209 16 248 17q57 4 104 -27q137 -90 -94 -157q-35 -10 -80 -21q-190 -41 -285.5 -30.5t-146.5 77.5z" />
<glyph unicode="&#x2013;" horiz-adv-x="1062" d="M53 733q-103 88 127 121q96 14 256 20q316 16 375 17q86 4 157 -27q207 -90 -142 -157q-53 -10 -121 -21q-287 -41 -431 -30.5t-221 77.5z" />
<glyph unicode="&#x2014;" horiz-adv-x="2086" d="M84 733q-205 88 254 121q194 14 514 20q631 16 749 17q172 4 314 -27q414 -90 -284 -157q-106 -10 -242 -21q-574 -41 -862 -30.5t-443 77.5z" />
<glyph unicode="&#x2019;" horiz-adv-x="258" d="M27 961q-16 16 7.5 237t43.5 256q27 41 48 41t64 -41q53 -49 48 -141t-68 -205q-31 -57 -59.5 -95t-50 -52.5t-33.5 0.5z" />
<glyph unicode="&#x201c;" horiz-adv-x="411" d="M20 393q-2 160 31 162q18 0 60 -41q47 -47 44 -132t-55 -118q-45 -31 -63 -31q-17 0 -17 160zM221 303q8 16 25 35q25 27 24.5 41t-24.5 53q-33 55 -10 78q25 27 48 22.5t62 -43.5q45 -41 45 -102t-43 -108q-59 -61 -108 -43q-43 14 -19 67z" />
<glyph unicode="&#x201d;" horiz-adv-x="362" d="M22 1179.5q-6 24.5 5 75.5q14 82 53 131q74 94 76 9q2 -49 -19 -166q-18 -117 -31 -129q-4 -4 -19 4t-32 26q-27 25 -33 49.5zM205 1235q12 68 43 117q35 53 67.5 41.5t26.5 -76.5q-4 -70 -36 -165t-50 -95q-25 0 -42 62.5t-9 115.5z" />
<glyph unicode="&#x2022;" />
<glyph unicode="&#x202f;" horiz-adv-x="328" />
<glyph unicode="&#x205f;" horiz-adv-x="410" />
<glyph unicode="&#x20ac;" horiz-adv-x="677" d="M20.5 1010q-4.5 47 28.5 108q18 37 20.5 63.5t-10.5 78.5q-18 68 -10 130t39 89q29 23 113 37q111 23 175 17.5t130 -40.5q86 -45 121 -37q29 4 30 -10q2 -23 -53 -213q-35 -123 -63.5 -179.5t-94.5 -131.5l-102 -117l-6 -234q-2 -66 -5 -111.5t-8.5 -81.5t-13.5 -54.5 t-19 -28.5t-25.5 -9t-35.5 9q-57 27 -78.5 89t-29.5 220q-4 125 -15.5 179.5t-39.5 105.5q-43 74 -47.5 121zM297 1006q-2 -49 31 -50q16 0 74.5 108.5t58.5 139.5q0 45 -96 -53q-63 -66 -68 -145zM299 1358q-6 -41 20 -41q27 0 84.5 33t57.5 47q0 29 -40 40t-75 -5 q-39 -16 -47 -74z" />
<glyph unicode="&#x25fc;" horiz-adv-x="1515" d="M0 0v1516h1516v-1516h-1516z" />
</font>
</defs>
</svg>
